HIERARCHY
ROOT Hips
{
 OFFSET 0.000000 0.000000 0.000000
 CHANNELS 6 Xposition Yposition Zposition Yrotation Xrotation Zrotation
 JOINT Chest
 {
  OFFSET 0.000000 9.585900 0.002600
  CHANNELS 3 Yrotation Xrotation Zrotation
  JOINT Chest2
  {
   OFFSET 0.000000 9.601200 -0.005300
   CHANNELS 3 Yrotation Xrotation Zrotation
   JOINT Chest3
   {
    OFFSET 0.000000 9.561800 0.000000
    CHANNELS 3 Yrotation Xrotation Zrotation
    JOINT Chest4
    {
     OFFSET 0.000000 9.552100 0.000000
     CHANNELS 3 Yrotation Xrotation Zrotation
     JOINT Neck
     {
      OFFSET 0.000000 14.453000 0.000000
      CHANNELS 3 Yrotation Xrotation Zrotation
      JOINT Head
      {
       OFFSET 0.000000 8.936500 -0.011300
       CHANNELS 3 Yrotation Xrotation Zrotation
       End Site
       {
        OFFSET 0.000000 17.073600 -0.006000
       }
      }
     }
     JOINT RightCollar
     {
      OFFSET -2.921100 9.558500 0.000000
      CHANNELS 3 Yrotation Xrotation Zrotation
      JOINT RightShoulder
      {
       OFFSET -13.519700 0.000000 0.000000
       CHANNELS 3 Yrotation Xrotation Zrotation
       JOINT RightElbow
       {
        OFFSET 0.000000 -29.696600 0.000000
        CHANNELS 3 Yrotation Xrotation Zrotation
        JOINT RightWrist
        {
         OFFSET 0.000000 -24.004700 0.000000
         CHANNELS 3 Yrotation Xrotation Zrotation
         End Site
         {
          OFFSET 0.000000 -17.728500 0.000000
         }
        }
       }
      }
     }
     JOINT LeftCollar
     {
      OFFSET 2.921100 9.558500 0.000000
      CHANNELS 3 Yrotation Xrotation Zrotation
      JOINT LeftShoulder
      {
       OFFSET 13.519700 0.000000 0.000000
       CHANNELS 3 Yrotation Xrotation Zrotation
       JOINT LeftElbow
       {
        OFFSET 0.000000 -29.696600 0.000000
        CHANNELS 3 Yrotation Xrotation Zrotation
        JOINT LeftWrist
        {
         OFFSET 0.000000 -24.004700 0.000000
         CHANNELS 3 Yrotation Xrotation Zrotation
         End Site
         {
          OFFSET 0.000000 -17.728500 0.000000
         }
        }
       }
      }
     }
    }
   }
  }
 }
 JOINT RightHip
 {
  OFFSET -7.771700 -0.012900 -0.001300
  CHANNELS 3 Yrotation Xrotation Zrotation
  JOINT RightKnee
  {
   OFFSET 0.000000 -40.869800 0.001200
   CHANNELS 3 Yrotation Xrotation Zrotation
   JOINT RightAnkle
   {
    OFFSET 0.000000 -39.717900 0.002100
    CHANNELS 3 Yrotation Xrotation Zrotation
    JOINT RightToe
    {
     OFFSET 0.000000 -4.965400 11.033500
     CHANNELS 3 Yrotation Xrotation Zrotation
     End Site
     {
      OFFSET 0.000000 -1.423100 5.872300
     }
    }
   }
  }
 }
 JOINT LeftHip
 {
  OFFSET 7.771700 -0.012900 -0.001300
  CHANNELS 3 Yrotation Xrotation Zrotation
  JOINT LeftKnee
  {
   OFFSET 0.000000 -40.869800 0.001200
   CHANNELS 3 Yrotation Xrotation Zrotation
   JOINT LeftAnkle
   {
    OFFSET 0.000000 -39.717900 0.002100
    CHANNELS 3 Yrotation Xrotation Zrotation
    JOINT LeftToe
    {
     OFFSET 0.000000 -4.965400 11.033500
     CHANNELS 3 Yrotation Xrotation Zrotation
     End Site
     {
      OFFSET 0.000000 -1.423100 5.872300
     }
    }
   }
  }
 }
}
MOTION
Frames: 16
Frame Time: 0.008333
0.000000 85.388000 0.000000 0.000000 -5.767877 0.000000 0.000000 11.653817 0.000000 0.000000 -5.885947 0.000000 0.000000 -0.000000 0.000000 0.000000 -0.000000 0.000000 0.000000 12.528835 0.000000 0.000000 0.711642 0.000000 0.000000 -0.000000 0.000000 0.000000 0.000000 -90.000000 0.000000 -2.309062 0.000000 0.000000 2.309062 0.000000 0.000000 -0.000000 0.000000 0.000000 -0.000000 90.000000 0.000000 -2.309062 0.000000 0.000000 2.309062 0.000000 0.000000 8.520406 0.000000 0.000000 1.905762 0.000000 -0.000000 -4.658285 0.000000 0.000000 -0.000000 0.000000 0.000000 8.520406 0.000000 0.000000 1.905762 0.000000 -0.000000 -4.658285 0.000000 0.000000 -0.000000 0.000000
-19.990092 44.027096 27.153719 176.514634 -27.587695 -0.643241 -2.109164 18.706413 1.528306 -0.251846 2.225976 0.310149 -0.341737 3.622983 0.553226 -1.433620 16.285120 2.244061 -1.722941 8.583905 -2.820312 -1.202519 -16.633176 -2.657287 6.172194 2.257696 -6.297568 -5.918701 0.784033 -2.647866 112.333810 -74.557959 -89.810608 2.894200 1.522973 -33.467383 -13.389597 -2.631833 -6.274896 10.715464 -0.712452 8.489602 122.341850 -66.599201 -155.355769 11.251249 18.486306 16.878886 6.724334 -64.705286 9.356398 -139.851332 63.409795 -141.263436 -12.717400 -25.202311 15.027188 -0.155692 -1.073841 0.024843 0.828697 -48.622368 -3.905326 170.846782 58.007294 172.235158 -0.178993 -41.521228 -0.256562 0.556954 0.362823 0.120750
-19.986313 44.022194 27.139113 176.565834 -27.521700 -0.654560 -2.152109 18.643652 1.525772 -0.203449 2.198904 0.343209 -0.360654 3.585598 0.535126 -1.427983 16.186971 2.249162 -1.685438 8.610703 -2.789142 -1.168602 -16.603969 -2.631020 6.187576 2.290450 -6.266005 -5.771048 0.506637 -2.637724 112.109298 -73.881558 -89.793191 3.080708 1.538379 -33.226733 -13.379317 -2.619903 -6.290044 10.705338 -0.669493 8.415239 122.241450 -66.767252 -155.229686 11.158114 18.481063 16.639648 6.672827 -64.780121 9.315842 -140.000550 63.384670 -141.358716 -12.812766 -25.204391 14.998700 -0.043992 -1.093290 0.029682 0.774770 -48.680310 -3.873412 170.882152 58.004723 172.230597 -0.163542 -41.542017 -0.240364 0.520492 0.373297 0.130052
-19.990953 44.010612 27.132766 176.510703 -27.372977 -0.562295 -2.091122 18.514873 1.497893 -0.227443 2.173232 0.323369 -0.330278 3.529223 0.549209 -1.420275 16.088945 2.254108 -1.650981 8.634366 -2.761230 -1.137298 -16.578296 -2.607701 6.210459 2.325985 -6.227357 -5.630021 0.225981 -2.629676 111.815340 -73.265916 -89.705425 3.256165 1.565534 -33.004997 -13.368921 -2.602145 -6.300207 10.697529 -0.622822 8.330214 122.146774 -66.933295 -155.104667 11.052367 18.478723 16.378029 6.671434 -64.930120 9.206567 -140.172890 63.409420 -141.580210 -12.725215 -25.225407 14.967455 -0.115706 -1.120831 -0.032571 0.881345 -48.821716 -3.901750 170.962016 58.003772 172.254930 -0.184340 -41.539378 -0.233856 0.500535 0.361711 0.187955
-19.992072 43.996840 27.128110 176.439296 -27.199072 -0.478218 -2.014314 18.355939 1.486391 -0.224471 2.142047 0.320985 -0.343690 3.513432 0.536142 -1.382954 15.967369 2.269638 -1.621816 8.655920 -2.737582 -1.110860 -16.554929 -2.587952 6.235119 2.361945 -6.183635 -5.496718 -0.053806 -2.618545 111.475873 -72.702423 -89.572740 3.412487 1.586625 -32.809045 -13.360988 -2.584385 -6.305843 10.691775 -0.571434 8.234722 122.059285 -67.100594 -154.986319 10.941383 18.488935 16.110255 6.730268 -65.102844 9.097914 -140.275190 63.435924 -141.735877 -12.641251 -25.244493 14.956214 -0.136213 -1.109386 -0.074895 0.988510 -48.987495 -3.879781 171.092936 58.004103 172.318371 -0.243508 -41.548427 -0.174179 0.484865 0.354324 0.224214
-19.979569 43.988557 27.111802 176.472601 -27.102106 -0.514375 -1.964979 18.308229 1.591073 -0.217307 2.082792 0.316786 -0.401796 3.495522 0.496655 -1.339528 15.850056 2.288033 -1.597919 8.675794 -2.718757 -1.089094 -16.533275 -2.572355 6.255493 2.394305 -6.137874 -5.369062 -0.324174 -2.601805 111.129265 -72.184099 -89.428495 3.543370 1.596404 -32.645996 -13.358110 -2.568768 -6.308548 10.685031 -0.516385 8.128248 121.997058 -67.274370 -154.889489 10.835351 18.517720 15.851994 6.510367 -65.204814 9.158120 -140.477735 63.437697 -141.837757 -12.741874 -25.267786 14.791040 0.023716 -1.113013 -0.000855 0.933942 -49.083490 -3.744332 171.241086 57.994458 172.402752 -0.258820 -41.555357 -0.127226 0.430997 0.341257 0.249590
-19.970329 43.976421 27.101382 176.456251 -26.965776 -0.507758 -1.920828 18.189717 1.629232 -0.205087 2.061965 0.323004 -0.359395 3.413451 0.511107 -1.364427 15.795965 2.280290 -1.577055 8.692837 -2.705115 -1.069414 -16.514674 -2.561780 6.275485 2.419679 -6.095714 -5.251513 -0.577540 -2.578003 110.825520 -71.709167 -89.318839 3.650467 1.596735 -32.518317 -13.356420 -2.552698 -6.311123 10.671872 -0.464672 8.013518 121.961059 -67.455372 -154.811061 10.730094 18.559928 15.605605 6.384103 -65.348205 9.154245 -140.636546 63.457387 -141.937647 -12.798471 -25.245953 14.730965 0.148073 -1.159583 -0.029242 0.958644 -49.222131 -3.634196 171.408964 57.982757 172.503560 -0.297562 -41.551028 -0.065828 0.397122 0.324640 0.278473
-19.961597 43.961517 27.095578 176.412741 -26.804996 -0.486466 -1.872565 18.034614 1.644165 -0.177912 2.057212 0.346553 -0.362035 3.378015 0.500925 -1.333980 15.702299 2.300217 -1.556545 8.704988 -2.696654 -1.048997 -16.501527 -2.556901 6.302106 2.433209 -6.063684 -5.146169 -0.808341 -2.551787 110.582457 -71.289551 -89.265008 3.740588 1.591589 -32.420071 -13.350023 -2.536372 -6.317202 10.645934 -0.419855 7.896356 121.961477 -67.644392 -154.754372 10.605592 18.598419 15.345520 6.297913 -65.518196 9.121216 -140.777676 63.488521 -142.042983 -12.758410 -25.201407 14.658386 0.183784 -1.188670 -0.034979 1.019162 -49.385884 -3.519864 171.590817 57.970827 172.614105 -0.368658 -41.554025 0.049399 0.392593 0.341179 0.245417
-19.952690 43.945972 27.090933 176.346158 -26.646111 -0.456364 -1.777821 17.903373 1.691890 -0.181360 2.033228 0.349547 -0.370928 3.352772 0.481078 -1.293547 15.606176 2.332629 -1.533900 8.711023 -2.692924 -1.025240 -16.495010 -2.557916 6.336570 2.440724 -6.043368 -5.041120 -1.022535 -2.530685 110.377761 -70.935805 -89.247455 3.815149 1.584663 -32.347737 -13.334480 -2.522511 -6.331840 10.604547 -0.377307 7.782299 122.052231 -67.848172 -154.756036 10.437908 18.611227 15.016062 6.239196 -65.688493 9.068597 -140.909303 63.525214 -142.132235 -12.683528 -25.136343 14.564808 0.196425 -1.229226 -0.041683 1.106945 -49.552862 -3.392163 171.788075 57.953115 172.737350 -0.439535 -41.533348 0.112692 0.357097 0.317859 0.283048
-19.941133 43.930107 27.088004 176.268078 -26.487413 -0.437825 -1.676095 17.773155 1.758142 -0.193482 2.007329 0.331981 -0.347704 3.314696 0.496185 -1.276415 15.537348 2.350814 -1.509716 8.709785 -2.692069 -0.999148 -16.496175 -2.562641 6.322606 2.492672 -6.048557 -4.880994 -1.277302 -2.494609 110.212844 -70.643376 -89.268279 3.871859 1.583430 -32.300920 -13.312063 -2.514535 -6.354004 10.551666 -0.330759 7.671859 122.322119 -68.077012 -154.885989 10.203345 18.577868 14.548220 6.157514 -65.863049 9.042281 -141.041082 63.568874 -142.216433 -12.577533 -25.045206 14.456980 0.218170 -1.280326 -0.053250 1.197282 -49.721232 -3.233639 172.006639 57.932493 172.881715 -0.513427 -41.512517 0.177837 0.315033 0.286964 0.335398
-19.921911 43.914417 27.087672 176.165685 -26.325151 -0.454538 -1.543462 17.643604 1.873348 -0.201748 1.979525 0.312457 -0.328679 3.282830 0.514373 -1.253229 15.477051 2.367864 -1.486455 8.699844 -2.691624 -0.974069 -16.506665 -2.567789 6.394692 2.481291 -6.029824 -4.793139 -1.457786 -2.490616 110.099814 -70.409319 -89.339912 3.911550 1.591470 -32.277038 -13.289077 -2.513580 -6.375681 10.493384 -0.278202 7.561474 122.845139 -68.337403 -155.212042 9.888337 18.491012 13.901567 5.983564 -66.047986 9.133150 -141.190762 63.619901 -142.316234 -12.449338 -24.997612 14.350796 0.211800 -1.269849 -0.079749 1.270785 -49.892753 -3.004811 172.244418 57.910052 173.047866 -0.541579 -41.482993 0.248914 0.245549 0.255066 0.339165
-19.905173 43.902638 27.083278 176.102491 -26.197104 -0.469546 -1.427083 17.588580 2.018779 -0.219305 1.919860 0.270054 -0.322950 3.250233 0.514045 -1.229740 15.424177 2.386838 -1.465398 8.679566 -2.691218 -0.951438 -16.528305 -2.572789 6.464586 2.471257 -6.012495 -4.701356 -1.638379 -2.495149 110.032014 -70.241346 -89.453681 3.936097 1.607404 -32.272195 -13.266844 -2.519283 -6.393801 10.436277 -0.219735 7.449334 123.636720 -68.625593 -155.760098 9.497136 18.361343 13.085804 5.793701 -66.195602 9.195461 -141.375565 63.675478 -142.445926 -12.368405 -24.887407 14.246000 0.239274 -1.297630 -0.094306 1.346543 -50.027840 -2.805728 172.491498 57.886439 173.227355 -0.623658 -41.470156 0.337815 0.218989 0.248410 0.345413
-19.886742 43.895002 27.076507 176.058606 -26.091931 -0.496883 -1.361985 17.503878 2.094936 -0.204466 1.919661 0.290548 -0.316492 3.221237 0.514253 -1.204719 15.376517 2.407874 -1.446338 8.648880 -2.691147 -0.930960 -16.561088 -2.577978 6.498620 2.476177 -6.007786 -4.575896 -1.838757 -2.498395 109.988990 -70.144904 -89.582055 3.947576 1.631914 -32.274918 -13.242830 -2.527595 -6.409602 10.391918 -0.158260 7.335985 124.656926 -68.927619 -156.514701 9.046838 18.212565 12.145455 5.567588 -66.316563 9.268965 -141.601462 63.729634 -142.606218 -12.312722 -24.812581 14.154283 0.261745 -1.286943 -0.114027 1.412572 -50.138839 -2.600673 172.744626 57.864011 173.417117 -0.710961 -41.452438 0.428369 0.175002 0.210851 0.401803
-19.866253 43.892340 27.067307 176.039180 -26.007387 -0.538232 -1.300648 17.471708 2.211323 -0.182084 1.920982 0.323970 -0.336989 3.167681 0.473315 -1.179690 15.331666 2.426107 -1.428650 8.608007 -2.690328 -0.912255 -16.604837 -2.582349 6.531385 2.477219 -6.004415 -4.452647 -2.038373 -2.503867 109.962597 -70.116147 -89.710757 3.944467 1.658154 -32.272096 -13.215754 -2.534216 -6.420187 10.371628 -0.098178 7.222905 125.859386 -69.225019 -157.453737 8.560689 18.077455 11.137737 5.314895 -66.411737 9.338072 -141.876144 63.781252 -142.802370 -12.266039 -24.795128 14.073219 0.283059 -1.230763 -0.137383 1.464449 -50.228566 -2.389575 173.006435 57.843704 173.620135 -0.805870 -41.427474 0.522605 0.151443 0.199673 0.400729
-19.840588 43.894574 27.057259 176.035910 -25.931430 -0.606911 -1.244468 17.449555 2.347050 -0.183215 1.898566 0.313926 -0.298637 3.154115 0.518468 -1.218094 15.286849 2.387726 -1.394141 8.553131 -2.678628 -0.895639 -16.658931 -2.585382 6.581901 2.464154 -5.990674 -4.336550 -2.232104 -2.509108 109.958796 -70.149840 -89.842422 3.922421 1.681159 -32.263640 -13.169935 -2.540928 -6.414460 10.378272 -0.041050 7.115335 127.221887 -69.504828 -158.563146 8.063239 17.981270 10.106902 5.011613 -66.495379 9.434730 -142.205083 63.832711 -143.038968 -12.192760 -24.894931 14.001034 0.266707 -1.086824 -0.176831 1.492099 -50.308275 -2.147330 173.279503 57.826471 173.839408 -0.882211 -41.376560 0.613964 0.109810 0.165599 0.388041
-19.817148 43.902705 27.044034 176.045001 -25.872517 -0.654734 -1.225126 17.413228 2.417620 -0.175053 1.901006 0.323532 -0.286282 3.147017 0.529297 -1.245347 15.261451 2.364922 -1.325404 8.486268 -2.647295 -0.882261 -16.720483 -2.588372 6.664219 2.435232 -5.956034 -4.226038 -2.421636 -2.517325 109.983734 -70.249731 -89.979619 3.885211 1.702092 -32.257030 -13.091605 -2.544075 -6.387803 10.412650 0.009470 7.018267 128.724380 -69.766442 -159.826154 7.574126 17.929452 9.079061 4.757420 -66.556222 9.447586 -142.578361 63.886895 -143.310216 -12.128321 -24.997164 13.919728 0.268252 -0.960876 -0.202590 1.557242 -50.366110 -1.951526 173.565269 57.812574 174.077971 -0.989523 -41.342727 0.717957 0.086439 0.138845 0.404593
